<?xml version="1.0" encoding="UTF-8" standalone="no"?>
<!DOCTYPE svg PUBLIC "-//W3C//DTD SVG 1.1//EN"
 "http://www.w3.org/Graphics/SVG/1.1/DTD/svg11.dtd">
<!-- Generated by graphviz version 14.1.1 (20251213.1925)
 -->
<!-- Title: JavaDeps Pages: 1 -->
<svg width="1372pt" height="2768pt"
 viewBox="0.00 0.00 1372.00 2768.00" xmlns="http://www.w3.org/2000/svg" xmlns:xlink="http://www.w3.org/1999/xlink">
<g id="graph0" class="graph" transform="scale(1 1) rotate(0) translate(4 2764.17)">
<title>JavaDeps</title>
<polygon fill="white" stroke="none" points="-4,4 -4,-2764.17 1368.25,-2764.17 1368.25,4 -4,4"/>
<!-- org.apache.hive.jdbc.Utils.JdbcConnectionParams -->
<g id="node1" class="node">
<title>org.apache.hive.jdbc.Utils.JdbcConnectionParams</title>
<polygon fill="none" stroke="black" points="1093.5,-1584.17 852.75,-1584.17 852.75,-1547 1093.5,-1547 1093.5,-1584.17"/>
<text xml:space="preserve" text-anchor="middle" x="973.12" y="-1561.71" font-family="Times New Roman,serif" font-size="10.00">org.apache.hive.jdbc.Utils.JdbcConnectionParams</text>
</g>
<!-- org.apache.hive.jdbc.saml.JdbcBrowserClientContext -->
<g id="node2" class="node">
<title>org.apache.hive.jdbc.saml.JdbcBrowserClientContext</title>
<polygon fill="none" stroke="black" points="1100.62,-2637.17 845.62,-2637.17 845.62,-2600 1100.62,-2600 1100.62,-2637.17"/>
<text xml:space="preserve" text-anchor="middle" x="973.12" y="-2614.71" font-family="Times New Roman,serif" font-size="10.00">org.apache.hive.jdbc.saml.JdbcBrowserClientContext</text>
</g>
<!-- java.net.URI -->
<g id="node14" class="node">
<title>java.net.URI</title>
<polygon fill="none" stroke="black" points="1364.25,-2637.17 1276.5,-2637.17 1276.5,-2600 1364.25,-2600 1364.25,-2637.17"/>
<text xml:space="preserve" text-anchor="middle" x="1320.38" y="-2614.71" font-family="Times New Roman,serif" font-size="10.00">java.net.URI</text>
</g>
<!-- org.apache.hive.jdbc.saml.JdbcBrowserClientContext&#45;&gt;java.net.URI -->
<g id="edge15" class="edge">
<title>org.apache.hive.jdbc.saml.JdbcBrowserClientContext&#45;&gt;java.net.URI</title>
<path fill="none" stroke="black" d="M1100.72,-2618.59C1158.58,-2618.59 1223.87,-2618.59 1267.93,-2618.59"/>
<polygon fill="black" stroke="black" points="1267.66,-2621.04 1274.66,-2618.59 1267.66,-2616.14 1267.66,-2621.04"/>
<text xml:space="preserve" text-anchor="middle" x="1195.12" y="-2620.34" font-family="Times New Roman,serif" font-size="10.00">field</text>
</g>
<!-- org.apache.hive.service.rpc.thrift.TProtocolVersion -->
<g id="node3" class="node">
<title>org.apache.hive.service.rpc.thrift.TProtocolVersion</title>
<polygon fill="none" stroke="black" points="1094.25,-1461.17 852,-1461.17 852,-1424 1094.25,-1424 1094.25,-1461.17"/>
<text xml:space="preserve" text-anchor="middle" x="973.12" y="-1438.71" font-family="Times New Roman,serif" font-size="10.00">org.apache.hive.service.rpc.thrift.TProtocolVersion</text>
</g>
<!-- org.apache.hive.jdbc.saml.IJdbcBrowserClient -->
<g id="node4" class="node">
<title>org.apache.hive.jdbc.saml.IJdbcBrowserClient</title>
<polygon fill="none" stroke="black" points="1085.62,-2248.17 860.62,-2248.17 860.62,-2211 1085.62,-2211 1085.62,-2248.17"/>
<text xml:space="preserve" text-anchor="middle" x="973.12" y="-2225.71" font-family="Times New Roman,serif" font-size="10.00">org.apache.hive.jdbc.saml.IJdbcBrowserClient</text>
</g>
<!-- java.sql.Connection -->
<g id="node5" class="node">
<title>java.sql.Connection</title>
<polygon fill="none" stroke="black" points="1032,-1338.17 914.25,-1338.17 914.25,-1301 1032,-1301 1032,-1338.17"/>
<text xml:space="preserve" text-anchor="middle" x="973.12" y="-1315.71" font-family="Times New Roman,serif" font-size="10.00">java.sql.Connection</text>
</g>
<!-- java.sql.ResultSet -->
<g id="node6" class="node">
<title>java.sql.ResultSet</title>
<polygon fill="none" stroke="black" points="571.5,-648.17 462.75,-648.17 462.75,-611 571.5,-611 571.5,-648.17"/>
<text xml:space="preserve" text-anchor="middle" x="517.12" y="-625.71" font-family="Times New Roman,serif" font-size="10.00">java.sql.ResultSet</text>
</g>
<!-- org.eclipse.jetty.server.Server -->
<g id="node7" class="node">
<title>org.eclipse.jetty.server.Server</title>
<polygon fill="none" stroke="black" points="1050.38,-2514.17 895.88,-2514.17 895.88,-2477 1050.38,-2477 1050.38,-2514.17"/>
<text xml:space="preserve" text-anchor="middle" x="973.12" y="-2491.71" font-family="Times New Roman,serif" font-size="10.00">org.eclipse.jetty.server.Server</text>
</g>
<!-- org.apache.hive.jdbc.saml.HiveJdbcBrowserServerResponse -->
<g id="node8" class="node">
<title>org.apache.hive.jdbc.saml.HiveJdbcBrowserServerResponse</title>
<polygon fill="none" stroke="black" points="1113.75,-2391.17 832.5,-2391.17 832.5,-2354 1113.75,-2354 1113.75,-2391.17"/>
<text xml:space="preserve" text-anchor="middle" x="973.12" y="-2368.71" font-family="Times New Roman,serif" font-size="10.00">org.apache.hive.jdbc.saml.HiveJdbcBrowserServerResponse</text>
</g>
<!-- org.apache.hive.jdbc.JdbcColumnAttributes -->
<g id="node9" class="node">
<title>org.apache.hive.jdbc.JdbcColumnAttributes</title>
<polygon fill="none" stroke="black" points="625.12,-160.17 409.12,-160.17 409.12,-123 625.12,-123 625.12,-160.17"/>
<text xml:space="preserve" text-anchor="middle" x="517.12" y="-137.71" font-family="Times New Roman,serif" font-size="10.00">org.apache.hive.jdbc.JdbcColumnAttributes</text>
</g>
<!-- org.apache.hive.jdbc.HiveBaseResultSet -->
<g id="node10" class="node">
<title>org.apache.hive.jdbc.HiveBaseResultSet</title>
<polygon fill="none" stroke="black" points="201.75,-351.17 0,-351.17 0,-314 201.75,-314 201.75,-351.17"/>
<text xml:space="preserve" text-anchor="middle" x="100.88" y="-328.71" font-family="Times New Roman,serif" font-size="10.00">org.apache.hive.jdbc.HiveBaseResultSet</text>
</g>
<!-- org.apache.hive.jdbc.HiveBaseResultSet&#45;&gt;java.sql.ResultSet -->
<g id="edge14" class="edge">
<title>org.apache.hive.jdbc.HiveBaseResultSet&#45;&gt;java.sql.ResultSet</title>
<path fill="none" stroke="black" stroke-dasharray="5,2" d="M128.22,-351.59C199.89,-403.28 393,-542.59 393,-542.59 393,-542.59 446.35,-580.28 482.81,-606.05"/>
<polygon fill="black" stroke="black" points="481.04,-607.8 488.17,-609.83 483.87,-603.79 481.04,-607.8"/>
<text xml:space="preserve" text-anchor="middle" x="297.38" y="-488.01" font-family="Times New Roman,serif" font-size="10.00">implements</text>
</g>
<!-- org.apache.hive.jdbc.HiveBaseResultSet&#45;&gt;org.apache.hive.jdbc.JdbcColumnAttributes -->
<g id="edge20" class="edge">
<title>org.apache.hive.jdbc.HiveBaseResultSet&#45;&gt;org.apache.hive.jdbc.JdbcColumnAttributes</title>
<path fill="none" stroke="black" d="M143.11,-313.57C219.93,-278.15 384.62,-202.22 467.04,-164.22"/>
<polygon fill="black" stroke="black" points="468.05,-166.45 473.38,-161.3 465.99,-162 468.05,-166.45"/>
<text xml:space="preserve" text-anchor="middle" x="297.38" y="-250.27" font-family="Times New Roman,serif" font-size="10.00">field</text>
</g>
<!-- java.sql.Statement -->
<g id="node12" class="node">
<title>java.sql.Statement</title>
<polygon fill="none" stroke="black" points="572.25,-499.17 462,-499.17 462,-462 572.25,-462 572.25,-499.17"/>
<text xml:space="preserve" text-anchor="middle" x="517.12" y="-476.71" font-family="Times New Roman,serif" font-size="10.00">java.sql.Statement</text>
</g>
<!-- org.apache.hive.jdbc.HiveBaseResultSet&#45;&gt;java.sql.Statement -->
<g id="edge10" class="edge">
<title>org.apache.hive.jdbc.HiveBaseResultSet&#45;&gt;java.sql.Statement</title>
<path fill="none" stroke="black" d="M155.18,-351.63C232.24,-379.16 374.36,-429.94 455.38,-458.88"/>
<polygon fill="black" stroke="black" points="454.18,-461.06 461.6,-461.1 455.83,-456.44 454.18,-461.06"/>
<text xml:space="preserve" text-anchor="middle" x="297.38" y="-408.34" font-family="Times New Roman,serif" font-size="10.00">field</text>
</g>
<!-- java.sql.SQLWarning -->
<g id="node22" class="node">
<title>java.sql.SQLWarning</title>
<polygon fill="none" stroke="black" points="1034.62,-852.17 911.62,-852.17 911.62,-815 1034.62,-815 1034.62,-852.17"/>
<text xml:space="preserve" text-anchor="middle" x="973.12" y="-829.71" font-family="Times New Roman,serif" font-size="10.00">java.sql.SQLWarning</text>
</g>
<!-- org.apache.hive.jdbc.HiveBaseResultSet&#45;&gt;java.sql.SQLWarning -->
<g id="edge5" class="edge">
<title>org.apache.hive.jdbc.HiveBaseResultSet&#45;&gt;java.sql.SQLWarning</title>
<path fill="none" stroke="black" d="M202.06,-346.47C358.05,-368.09 641.25,-407.34 641.25,-407.34 641.25,-407.34 881.28,-716.56 952.46,-808.25"/>
<polygon fill="black" stroke="black" points="950.33,-809.5 956.55,-813.52 954.2,-806.49 950.33,-809.5"/>
<text xml:space="preserve" text-anchor="middle" x="517.12" y="-409.09" font-family="Times New Roman,serif" font-size="10.00">field</text>
</g>
<!-- org.apache.hive.service.cli.TableSchema -->
<g id="node24" class="node">
<title>org.apache.hive.service.cli.TableSchema</title>
<polygon fill="none" stroke="black" points="617.25,-37.17 417,-37.17 417,0 617.25,0 617.25,-37.17"/>
<text xml:space="preserve" text-anchor="middle" x="517.12" y="-14.71" font-family="Times New Roman,serif" font-size="10.00">org.apache.hive.service.cli.TableSchema</text>
</g>
<!-- org.apache.hive.jdbc.HiveBaseResultSet&#45;&gt;org.apache.hive.service.cli.TableSchema -->
<g id="edge16" class="edge">
<title>org.apache.hive.jdbc.HiveBaseResultSet&#45;&gt;org.apache.hive.service.cli.TableSchema</title>
<path fill="none" stroke="black" d="M123.76,-313.57C191.46,-254.73 393,-79.59 393,-79.59 393,-79.59 435.45,-58.56 470.49,-41.19"/>
<polygon fill="black" stroke="black" points="471.3,-43.53 476.49,-38.22 469.13,-39.14 471.3,-43.53"/>
<text xml:space="preserve" text-anchor="middle" x="297.38" y="-177.73" font-family="Times New Roman,serif" font-size="10.00">field</text>
</g>
<!-- org.apache.hive.jdbc.saml.HiveJdbcBrowserClient -->
<g id="node11" class="node">
<title>org.apache.hive.jdbc.saml.HiveJdbcBrowserClient</title>
<polygon fill="none" stroke="black" points="638.25,-2514.17 396,-2514.17 396,-2477 638.25,-2477 638.25,-2514.17"/>
<text xml:space="preserve" text-anchor="middle" x="517.12" y="-2491.71" font-family="Times New Roman,serif" font-size="10.00">org.apache.hive.jdbc.saml.HiveJdbcBrowserClient</text>
</g>
<!-- org.apache.hive.jdbc.saml.HiveJdbcBrowserClient&#45;&gt;org.apache.hive.jdbc.saml.JdbcBrowserClientContext -->
<g id="edge8" class="edge">
<title>org.apache.hive.jdbc.saml.HiveJdbcBrowserClient&#45;&gt;org.apache.hive.jdbc.saml.JdbcBrowserClientContext</title>
<path fill="none" stroke="black" d="M588.56,-2514.67C671.2,-2537.06 807.81,-2574.07 893.74,-2597.35"/>
<polygon fill="black" stroke="black" points="893.04,-2599.7 900.43,-2599.16 894.32,-2594.97 893.04,-2599.7"/>
<text xml:space="preserve" text-anchor="middle" x="736.88" y="-2562.52" font-family="Times New Roman,serif" font-size="10.00">field</text>
</g>
<!-- org.apache.hive.jdbc.saml.HiveJdbcBrowserClient&#45;&gt;org.apache.hive.jdbc.saml.IJdbcBrowserClient -->
<g id="edge1" class="edge">
<title>org.apache.hive.jdbc.saml.HiveJdbcBrowserClient&#45;&gt;org.apache.hive.jdbc.saml.IJdbcBrowserClient</title>
<path fill="none" stroke="black" stroke-dasharray="5,2" d="M550.29,-2476.66C630.41,-2429.51 832.5,-2310.59 832.5,-2310.59 832.5,-2310.59 890.9,-2276.71 932.16,-2252.77"/>
<polygon fill="black" stroke="black" points="933.25,-2254.97 938.08,-2249.34 930.8,-2250.73 933.25,-2254.97"/>
<text xml:space="preserve" text-anchor="middle" x="736.88" y="-2377.45" font-family="Times New Roman,serif" font-size="10.00">implements</text>
</g>
<!-- org.apache.hive.jdbc.saml.HiveJdbcBrowserClient&#45;&gt;org.eclipse.jetty.server.Server -->
<g id="edge11" class="edge">
<title>org.apache.hive.jdbc.saml.HiveJdbcBrowserClient&#45;&gt;org.eclipse.jetty.server.Server</title>
<path fill="none" stroke="black" d="M638.65,-2494.81C678.68,-2494.56 713.25,-2494.34 713.25,-2494.34 713.25,-2494.34 760.5,-2494.34 760.5,-2494.34 760.5,-2494.34 828.33,-2494.74 887.19,-2495.08"/>
<polygon fill="black" stroke="black" points="886.9,-2497.53 893.91,-2495.12 886.93,-2492.63 886.9,-2497.53"/>
<text xml:space="preserve" text-anchor="middle" x="736.88" y="-2496.09" font-family="Times New Roman,serif" font-size="10.00">field</text>
</g>
<!-- org.apache.hive.jdbc.saml.HiveJdbcBrowserClient&#45;&gt;org.apache.hive.jdbc.saml.HiveJdbcBrowserServerResponse -->
<g id="edge2" class="edge">
<title>org.apache.hive.jdbc.saml.HiveJdbcBrowserClient&#45;&gt;org.apache.hive.jdbc.saml.HiveJdbcBrowserServerResponse</title>
<path fill="none" stroke="black" d="M588.56,-2476.5C671.2,-2454.11 807.81,-2417.1 893.74,-2393.82"/>
<polygon fill="black" stroke="black" points="894.32,-2396.2 900.43,-2392.01 893.04,-2391.47 894.32,-2396.2"/>
<text xml:space="preserve" text-anchor="middle" x="736.88" y="-2443.2" font-family="Times New Roman,serif" font-size="10.00">field</text>
</g>
<!-- java.util.concurrent.BlockingQueue -->
<g id="node25" class="node">
<title>java.util.concurrent.BlockingQueue</title>
<polygon fill="none" stroke="black" points="1064.62,-2760.17 881.62,-2760.17 881.62,-2723 1064.62,-2723 1064.62,-2760.17"/>
<text xml:space="preserve" text-anchor="middle" x="973.12" y="-2737.71" font-family="Times New Roman,serif" font-size="10.00">java.util.concurrent.BlockingQueue</text>
</g>
<!-- org.apache.hive.jdbc.saml.HiveJdbcBrowserClient&#45;&gt;java.util.concurrent.BlockingQueue -->
<g id="edge12" class="edge">
<title>org.apache.hive.jdbc.saml.HiveJdbcBrowserClient&#45;&gt;java.util.concurrent.BlockingQueue</title>
<path fill="none" stroke="black" d="M550.29,-2514.51C630.41,-2561.66 832.5,-2680.59 832.5,-2680.59 832.5,-2680.59 881.44,-2701.97 921.37,-2719.41"/>
<polygon fill="black" stroke="black" points="919.93,-2721.46 927.33,-2722.01 921.89,-2716.97 919.93,-2721.46"/>
<text xml:space="preserve" text-anchor="middle" x="736.88" y="-2637.63" font-family="Times New Roman,serif" font-size="10.00">field</text>
</g>
<!-- org.apache.hive.jdbc.logs.InPlaceUpdateStream -->
<g id="node13" class="node">
<title>org.apache.hive.jdbc.logs.InPlaceUpdateStream</title>
<polygon fill="none" stroke="black" points="632.25,-968.17 402,-968.17 402,-931 632.25,-931 632.25,-968.17"/>
<text xml:space="preserve" text-anchor="middle" x="517.12" y="-945.71" font-family="Times New Roman,serif" font-size="10.00">org.apache.hive.jdbc.logs.InPlaceUpdateStream</text>
</g>
<!-- java.util.Properties -->
<g id="node15" class="node">
<title>java.util.Properties</title>
<polygon fill="none" stroke="black" points="1029.38,-1953.17 916.88,-1953.17 916.88,-1916 1029.38,-1916 1029.38,-1953.17"/>
<text xml:space="preserve" text-anchor="middle" x="973.12" y="-1930.71" font-family="Times New Roman,serif" font-size="10.00">java.util.Properties</text>
</g>
<!-- javax.security.auth.Subject -->
<g id="node16" class="node">
<title>javax.security.auth.Subject</title>
<polygon fill="none" stroke="black" points="1045.88,-1830.17 900.38,-1830.17 900.38,-1793 1045.88,-1793 1045.88,-1830.17"/>
<text xml:space="preserve" text-anchor="middle" x="973.12" y="-1807.71" font-family="Times New Roman,serif" font-size="10.00">javax.security.auth.Subject</text>
</g>
<!-- org.apache.thrift.transport.TTransport -->
<g id="node17" class="node">
<title>org.apache.thrift.transport.TTransport</title>
<polygon fill="none" stroke="black" points="1067.25,-1707.17 879,-1707.17 879,-1670 1067.25,-1670 1067.25,-1707.17"/>
<text xml:space="preserve" text-anchor="middle" x="973.12" y="-1684.71" font-family="Times New Roman,serif" font-size="10.00">org.apache.thrift.transport.TTransport</text>
</g>
<!-- org.apache.hive.jdbc.HiveConnection -->
<g id="node18" class="node">
<title>org.apache.hive.jdbc.HiveConnection</title>
<polygon fill="none" stroke="black" points="612.75,-1595.17 421.5,-1595.17 421.5,-1558 612.75,-1558 612.75,-1595.17"/>
<text xml:space="preserve" text-anchor="middle" x="517.12" y="-1572.71" font-family="Times New Roman,serif" font-size="10.00">org.apache.hive.jdbc.HiveConnection</text>
</g>
<!-- org.apache.hive.jdbc.HiveConnection&#45;&gt;org.apache.hive.jdbc.Utils.JdbcConnectionParams -->
<g id="edge25" class="edge">
<title>org.apache.hive.jdbc.HiveConnection&#45;&gt;org.apache.hive.jdbc.Utils.JdbcConnectionParams</title>
<path fill="none" stroke="black" d="M613.02,-1574.29C680.1,-1572.66 770.79,-1570.46 844.24,-1568.68"/>
<polygon fill="black" stroke="black" points="844.2,-1571.14 851.14,-1568.52 844.08,-1566.24 844.2,-1571.14"/>
<text xml:space="preserve" text-anchor="middle" x="736.88" y="-1573.49" font-family="Times New Roman,serif" font-size="10.00">field</text>
</g>
<!-- org.apache.hive.jdbc.HiveConnection&#45;&gt;org.apache.hive.service.rpc.thrift.TProtocolVersion -->
<g id="edge4" class="edge">
<title>org.apache.hive.jdbc.HiveConnection&#45;&gt;org.apache.hive.service.rpc.thrift.TProtocolVersion</title>
<path fill="none" stroke="black" d="M582.69,-1557.53C666.49,-1532.79 812.31,-1489.75 899.77,-1463.94"/>
<polygon fill="black" stroke="black" points="900.31,-1466.34 906.33,-1462 898.92,-1461.64 900.31,-1466.34"/>
<text xml:space="preserve" text-anchor="middle" x="736.88" y="-1519.36" font-family="Times New Roman,serif" font-size="10.00">field</text>
</g>
<!-- org.apache.hive.jdbc.HiveConnection&#45;&gt;org.apache.hive.jdbc.saml.IJdbcBrowserClient -->
<g id="edge3" class="edge">
<title>org.apache.hive.jdbc.HiveConnection&#45;&gt;org.apache.hive.jdbc.saml.IJdbcBrowserClient</title>
<path fill="none" stroke="black" d="M528.62,-1595.46C569.15,-1668.36 713.25,-1927.59 713.25,-1927.59 713.25,-1927.59 832.5,-2129.59 832.5,-2129.59 832.5,-2129.59 897.31,-2176 938.62,-2205.59"/>
<polygon fill="black" stroke="black" points="937.19,-2207.58 944.3,-2209.66 940.04,-2203.59 937.19,-2207.58"/>
<text xml:space="preserve" text-anchor="middle" x="736.88" y="-2006.3" font-family="Times New Roman,serif" font-size="10.00">field</text>
</g>
<!-- org.apache.hive.jdbc.HiveConnection&#45;&gt;java.sql.Connection -->
<g id="edge23" class="edge">
<title>org.apache.hive.jdbc.HiveConnection&#45;&gt;java.sql.Connection</title>
<path fill="none" stroke="black" stroke-dasharray="5,2" d="M548.55,-1557.61C627.45,-1508.43 832.5,-1380.59 832.5,-1380.59 832.5,-1380.59 881.44,-1359.2 921.37,-1341.76"/>
<polygon fill="black" stroke="black" points="921.89,-1344.2 927.33,-1339.16 919.93,-1339.71 921.89,-1344.2"/>
<text xml:space="preserve" text-anchor="middle" x="736.88" y="-1451.33" font-family="Times New Roman,serif" font-size="10.00">implements</text>
</g>
<!-- org.apache.hive.jdbc.HiveConnection&#45;&gt;java.util.Properties -->
<g id="edge6" class="edge">
<title>org.apache.hive.jdbc.HiveConnection&#45;&gt;java.util.Properties</title>
<path fill="none" stroke="black" d="M538.27,-1595.62C607.65,-1661.17 832.5,-1873.59 832.5,-1873.59 832.5,-1873.59 881.44,-1894.97 921.37,-1912.41"/>
<polygon fill="black" stroke="black" points="919.93,-1914.46 927.33,-1915.01 921.89,-1909.97 919.93,-1914.46"/>
<text xml:space="preserve" text-anchor="middle" x="736.88" y="-1803.56" font-family="Times New Roman,serif" font-size="10.00">field</text>
</g>
<!-- org.apache.hive.jdbc.HiveConnection&#45;&gt;javax.security.auth.Subject -->
<g id="edge13" class="edge">
<title>org.apache.hive.jdbc.HiveConnection&#45;&gt;javax.security.auth.Subject</title>
<path fill="none" stroke="black" d="M552.37,-1595.54C633.85,-1640.63 832.5,-1750.59 832.5,-1750.59 832.5,-1750.59 881.44,-1771.97 921.37,-1789.41"/>
<polygon fill="black" stroke="black" points="919.93,-1791.46 927.33,-1792.01 921.89,-1786.97 919.93,-1791.46"/>
<text xml:space="preserve" text-anchor="middle" x="736.88" y="-1710.29" font-family="Times New Roman,serif" font-size="10.00">field</text>
</g>
<!-- org.apache.hive.jdbc.HiveConnection&#45;&gt;org.apache.thrift.transport.TTransport -->
<g id="edge18" class="edge">
<title>org.apache.hive.jdbc.HiveConnection&#45;&gt;org.apache.thrift.transport.TTransport</title>
<path fill="none" stroke="black" d="M595.4,-1595.65C676.24,-1615.59 802.8,-1646.81 886.6,-1667.49"/>
<polygon fill="black" stroke="black" points="885.97,-1669.85 893.35,-1669.15 887.14,-1665.1 885.97,-1669.85"/>
<text xml:space="preserve" text-anchor="middle" x="736.88" y="-1637.69" font-family="Times New Roman,serif" font-size="10.00">field</text>
</g>
<!-- TCLIService.Iface -->
<g id="node20" class="node">
<title>TCLIService.Iface</title>
<polygon fill="none" stroke="black" points="1027.88,-2086.17 918.38,-2086.17 918.38,-2049 1027.88,-2049 1027.88,-2086.17"/>
<text xml:space="preserve" text-anchor="middle" x="973.12" y="-2063.71" font-family="Times New Roman,serif" font-size="10.00">TCLIService.Iface</text>
</g>
<!-- org.apache.hive.jdbc.HiveConnection&#45;&gt;TCLIService.Iface -->
<g id="edge28" class="edge">
<title>org.apache.hive.jdbc.HiveConnection&#45;&gt;TCLIService.Iface</title>
<path fill="none" stroke="black" d="M532.24,-1595.45C593.42,-1677.17 832.5,-1996.59 832.5,-1996.59 832.5,-1996.59 886.43,-2024.01 927.25,-2044.77"/>
<polygon fill="black" stroke="black" points="926.01,-2046.88 933.36,-2047.87 928.23,-2042.52 926.01,-2046.88"/>
<text xml:space="preserve" text-anchor="middle" x="736.88" y="-1896.84" font-family="Times New Roman,serif" font-size="10.00">field</text>
</g>
<!-- org.apache.hive.jdbc.HiveConnection&#45;&gt;java.sql.SQLWarning -->
<g id="edge9" class="edge">
<title>org.apache.hive.jdbc.HiveConnection&#45;&gt;java.sql.SQLWarning</title>
<path fill="none" stroke="black" d="M529.69,-1557.53C586.4,-1464.08 832.5,-1058.59 832.5,-1058.59 832.5,-1058.59 919.32,-918.68 956.04,-859.51"/>
<polygon fill="black" stroke="black" points="958.05,-860.91 959.66,-853.67 953.89,-858.32 958.05,-860.91"/>
<text xml:space="preserve" text-anchor="middle" x="736.88" y="-1242.67" font-family="Times New Roman,serif" font-size="10.00">field</text>
</g>
<!-- org.apache.hive.service.rpc.thrift.TSessionHandle -->
<g id="node23" class="node">
<title>org.apache.hive.service.rpc.thrift.TSessionHandle</title>
<polygon fill="none" stroke="black" points="1092,-1139.17 854.25,-1139.17 854.25,-1102 1092,-1102 1092,-1139.17"/>
<text xml:space="preserve" text-anchor="middle" x="973.12" y="-1116.71" font-family="Times New Roman,serif" font-size="10.00">org.apache.hive.service.rpc.thrift.TSessionHandle</text>
</g>
<!-- org.apache.hive.jdbc.HiveConnection&#45;&gt;org.apache.hive.service.rpc.thrift.TSessionHandle -->
<g id="edge17" class="edge">
<title>org.apache.hive.jdbc.HiveConnection&#45;&gt;org.apache.hive.service.rpc.thrift.TSessionHandle</title>
<path fill="none" stroke="black" d="M536.85,-1557.59C604.53,-1488.91 832.5,-1257.59 832.5,-1257.59 832.5,-1257.59 906.85,-1184.63 947.04,-1145.2"/>
<polygon fill="black" stroke="black" points="948.35,-1147.35 951.63,-1140.69 944.92,-1143.85 948.35,-1147.35"/>
<text xml:space="preserve" text-anchor="middle" x="736.88" y="-1371.62" font-family="Times New Roman,serif" font-size="10.00">field</text>
</g>
<!-- org.apache.hive.service.rpc.thrift.TOperationHandle -->
<g id="node19" class="node">
<title>org.apache.hive.service.rpc.thrift.TOperationHandle</title>
<polygon fill="none" stroke="black" points="641.25,-2300.17 393,-2300.17 393,-2263 641.25,-2263 641.25,-2300.17"/>
<text xml:space="preserve" text-anchor="middle" x="517.12" y="-2277.71" font-family="Times New Roman,serif" font-size="10.00">org.apache.hive.service.rpc.thrift.TOperationHandle</text>
</g>
<!-- org.apache.hive.jdbc.HiveStatement -->
<g id="node21" class="node">
<title>org.apache.hive.jdbc.HiveStatement</title>
<polygon fill="none" stroke="black" points="192.75,-1073.17 9,-1073.17 9,-1036 192.75,-1036 192.75,-1073.17"/>
<text xml:space="preserve" text-anchor="middle" x="100.88" y="-1050.71" font-family="Times New Roman,serif" font-size="10.00">org.apache.hive.jdbc.HiveStatement</text>
</g>
<!-- org.apache.hive.jdbc.HiveStatement&#45;&gt;java.sql.ResultSet -->
<g id="edge22" class="edge">
<title>org.apache.hive.jdbc.HiveStatement&#45;&gt;java.sql.ResultSet</title>
<path fill="none" stroke="black" d="M113.42,-1035.63C151.96,-972.34 273.75,-772.34 273.75,-772.34 273.75,-772.34 408.04,-693.24 476.71,-652.8"/>
<polygon fill="black" stroke="black" points="477.85,-654.97 482.64,-649.31 475.36,-650.75 477.85,-654.97"/>
<text xml:space="preserve" text-anchor="middle" x="297.38" y="-774.09" font-family="Times New Roman,serif" font-size="10.00">field</text>
</g>
<!-- org.apache.hive.jdbc.HiveStatement&#45;&gt;java.sql.Statement -->
<g id="edge24" class="edge">
<title>org.apache.hive.jdbc.HiveStatement&#45;&gt;java.sql.Statement</title>
<path fill="none" stroke="black" stroke-dasharray="5,2" d="M111.36,-1035.7C147.39,-963.95 273.75,-712.34 273.75,-712.34 273.75,-712.34 393,-567.59 393,-567.59 393,-567.59 446.35,-529.89 482.81,-504.12"/>
<polygon fill="black" stroke="black" points="483.87,-506.38 488.17,-500.34 481.04,-502.37 483.87,-506.38"/>
<text xml:space="preserve" text-anchor="middle" x="297.38" y="-714.09" font-family="Times New Roman,serif" font-size="10.00">implements</text>
</g>
<!-- org.apache.hive.jdbc.HiveStatement&#45;&gt;org.apache.hive.jdbc.logs.InPlaceUpdateStream -->
<g id="edge26" class="edge">
<title>org.apache.hive.jdbc.HiveStatement&#45;&gt;org.apache.hive.jdbc.logs.InPlaceUpdateStream</title>
<path fill="none" stroke="black" d="M176.89,-1035.57C249.1,-1017.27 358.08,-989.64 432.93,-970.67"/>
<polygon fill="black" stroke="black" points="433.32,-973.1 439.5,-969.01 432.11,-968.35 433.32,-973.1"/>
<text xml:space="preserve" text-anchor="middle" x="297.38" y="-1010.12" font-family="Times New Roman,serif" font-size="10.00">field</text>
</g>
<!-- org.apache.hive.jdbc.HiveStatement&#45;&gt;org.apache.hive.jdbc.HiveConnection -->
<g id="edge29" class="edge">
<title>org.apache.hive.jdbc.HiveStatement&#45;&gt;org.apache.hive.jdbc.HiveConnection</title>
<path fill="none" stroke="black" d="M116.86,-1073.47C179.91,-1152.92 423.68,-1460.09 495.87,-1551.06"/>
<polygon fill="black" stroke="black" points="493.95,-1552.58 500.22,-1556.54 497.78,-1549.53 493.95,-1552.58"/>
<text xml:space="preserve" text-anchor="middle" x="297.38" y="-1317.34" font-family="Times New Roman,serif" font-size="10.00">field</text>
</g>
<!-- org.apache.hive.jdbc.HiveStatement&#45;&gt;org.apache.hive.service.rpc.thrift.TOperationHandle -->
<g id="edge21" class="edge">
<title>org.apache.hive.jdbc.HiveStatement&#45;&gt;org.apache.hive.service.rpc.thrift.TOperationHandle</title>
<path fill="none" stroke="black" d="M104.71,-1073.37C127.06,-1221.2 273.75,-2191.59 273.75,-2191.59 273.75,-2191.59 385.61,-2233.12 457.35,-2259.76"/>
<polygon fill="black" stroke="black" points="456.19,-2261.94 463.6,-2262.08 457.89,-2257.35 456.19,-2261.94"/>
<text xml:space="preserve" text-anchor="middle" x="297.38" y="-2210.55" font-family="Times New Roman,serif" font-size="10.00">field</text>
</g>
<!-- org.apache.hive.jdbc.HiveStatement&#45;&gt;TCLIService.Iface -->
<g id="edge7" class="edge">
<title>org.apache.hive.jdbc.HiveStatement&#45;&gt;TCLIService.Iface</title>
<path fill="none" stroke="black" d="M111.23,-1073.35C161.06,-1173.31 393,-1638.59 393,-1638.59 393,-1638.59 713.25,-2036.59 713.25,-2036.59 713.25,-2036.59 833.39,-2050.97 909.98,-2060.14"/>
<polygon fill="black" stroke="black" points="909.43,-2062.54 916.67,-2060.94 910.01,-2057.68 909.43,-2062.54"/>
<text xml:space="preserve" text-anchor="middle" x="517.12" y="-1946.74" font-family="Times New Roman,serif" font-size="10.00">field</text>
</g>
<!-- org.apache.hive.jdbc.HiveStatement&#45;&gt;java.sql.SQLWarning -->
<g id="edge19" class="edge">
<title>org.apache.hive.jdbc.HiveStatement&#45;&gt;java.sql.SQLWarning</title>
<path fill="none" stroke="black" d="M133.03,-1035.51C208.13,-989.53 393,-876.34 393,-876.34 393,-876.34 749.68,-850.01 903.2,-838.67"/>
<polygon fill="black" stroke="black" points="902.93,-841.15 909.73,-838.19 902.57,-836.26 902.93,-841.15"/>
<text xml:space="preserve" text-anchor="middle" x="517.12" y="-878.09" font-family="Times New Roman,serif" font-size="10.00">field</text>
</g>
<!-- org.apache.hive.jdbc.HiveStatement&#45;&gt;org.apache.hive.service.rpc.thrift.TSessionHandle -->
<g id="edge27" class="edge">
<title>org.apache.hive.jdbc.HiveStatement&#45;&gt;org.apache.hive.service.rpc.thrift.TSessionHandle</title>
<path fill="none" stroke="black" d="M192.95,-1061.49C349.02,-1073.33 667.88,-1097.51 845.51,-1110.98"/>
<polygon fill="black" stroke="black" points="845.18,-1113.41 852.35,-1111.5 845.55,-1108.53 845.18,-1113.41"/>
<text xml:space="preserve" text-anchor="middle" x="517.12" y="-1096.97" font-family="Times New Roman,serif" font-size="10.00">field</text>
</g>
</g>
</svg>
